<?xml version="1.0" standalone="yes"?><svg version="1.1" xmlns="http://www.w3.org/2000/svg" xmlns:xlink="http://www.w3.org/1999/xlink" xmlns:ev="http://www.w3.org/2001/xml-events" viewBox="0 0 363 363" shape-rendering="crispEdges"><path d="M0 0h7v7h-7zM8 0h1v1h-1zM10 0h5v1h-1v1h-1v1h-1v-2h-2zM16 0h3v1h1v1h-1v1h-1v-1h-2v3h3v2h-1v-1h-1v1h-1v-1h-1v-3h-1v-1h1v-1h1zM22 0h2v1h-2zM26 0h7v7h-7zM1 1v5h5v-5zM24 1h1v2h-1v1h1v4h-1v-3h-1v3h1v1h-1v2h-1v-2h-1v-1h1v-3h-1v-1h2v-2h1zM27 1v5h5v-5zM2 2h3v3h-3zM8 2h1v1h-1zM10 2h1v5h-1v-1h-1v-1h-1v-1h2zM21 2h1v1h-1zM28 2h3v3h-3zM13 3h1v1h-1zM13 5h1v1h-1zM8 6h1v1h1v2h1v1h-1v1h-2v-1h-1v-1h-1v1h-2v-1h1v-1h2v1h2v-1h-1zM12 6h1v1h1v-1h1v1h-1v1h1v1h-1v1h-1v1h-1v1h2v-1h1v-1h1v1h-1v1h2v-2h1v-1h-2v-1h1v-1h1v2h1v-2h1v-1h1v1h-1v3h1v2h1v3h-1v-1h-1v1h-1v1h-1v-2h-2v-1h-1v1h1v2h-1v-1h-1v-2h-3v-1h-1v-1h1v-1h1v-1h1v-1h-1zM26 8h1v1h1v-1h1v2h-1v2h-1v-1h-1v-1h-1v-1h1zM30 8h1v2h-1zM32 8h1v2h-1zM0 9h2v1h2v1h-2v2h-1v-1h-1v-1h1v-1h-1zM6 10h1v1h-1zM18 10v4h1v-1h1v-1h-1v-2zM29 10h1v1h1v-1h1v1h-1v1h-2zM4 11h1v1h2v-1h1v1h-1v1h-1v1h-1v-1h-1zM32 11h1v3h-2v2h-1v1h-2v-1h-1v-1h1v1h1v-1h1v-2h1v-1h1zM8 12h1v1h-1zM23 12h1v1h1v1h1v4h1v-1h1v2h-1v1h-1v1h1v-1h2v-1h3v-1h-2v-1h2v1h1v1h-1v1h-1v1h-1v-1h-1v1h1v1h-1v1h-1v-1h-3v-1h-1v-2h-1v-1h-1v-3h1v3h2v-1h-1v-1h1v-1h-1v-1h-1zM26 12h1v1h-1zM28 12h1v1h-1zM0 13h1v3h-1zM3 13h1v1h-1zM7 13h1v1h-1zM27 13h1v1h-1zM2 14h1v2h1v-2h1v3h1v-1h1v1h-1v1h2v-1h3v-1h-1v-1h-2v-1h2v1h1v-1h1v1h-1v1h1v-1h2v1h-2v3h-2v-1h-1v1h-1v1h-1v-1h-1v1h1v1h-2v-1h-2v-1h-2v-1h2v-1h-2v-1h1zM6 14h1v1h-1zM14 16h1v1h1v3h-1v-1h-1v-1h-1v-1h1zM17 16h1v1h-1zM19 16h1v1h-1zM18 17h1v1h1v-1h1v1h-1v1h-1v3h-1v1h-1v1h-1v-3h1v-3h1zM4 18v1h1v-1zM9 19h1v1h3v-1h1v1h-1v1h-1v1h1v2h-2v-1h-1v-2h-1zM0 20h3v2h-1v-1h-1v3h2v-1h1v-1h1v1h-1v2h-4zM14 20h1v1h-1zM20 20h1v1h1v-1h1v1h-1v1h-2zM7 21h1v2h-2v-1h1zM31 21h1v1h-1zM19 22h1v3h-2v-2h1zM24 22h1v2h2v-1h1v1h1v-1h4v3h-1v-1h-1v-1h-2v1h2v1h-1v1h1v-1h1v1h-1v1h-2v2h1v1h1v-1h1v-1h-1v-1h1v-1h1v1h-1v1h1v2h-2v1h-2v-1h-1v-1h-1v-1h-1v1h-1v-1h-1v-1h-2v-1h-1v1h-1v-1h-1v-1h2v-1h2v1h-1v1h2zM14 23h1v1h-1zM22 23h1v1h-1zM5 24h6v1h-1v2h1v1h-3v-1h1v-1h-1v-1h-3zM15 24h1v1h1v1h1v2h-1v3h1v1h-1v1h-2v-1h-1v-1h1v1h1v-5h-1zM11 25h1v1h-1zM25 25v3h3v-3zM0 26h7v7h-7zM26 26h1v1h-1zM1 27v5h5v-5zM2 28h3v3h-3zM11 28h3v1h-3zM18 28h1v1h-1zM21 28h1v1h-1zM10 29h1v1h1v1h-2zM23 29h1v1h-1zM20 30h1v2h-2v-1h1zM22 30h1v2h-1zM24 30h1v2h1v-2h1v2h2v1h-6v-1h1zM9 31h1v1h1v1h-2zM31 32h1v1h-1z" fill="#000" transform="translate(0,0) scale(11)"/></svg>